<svg preserveAspectRatio="none" overflow="visible" style="display: block;" width="28" height="28" viewBox="0 0 28 28" fill="none" xmlns="http://www.w3.org/2000/svg">
<g id="icon / tabler-icons / message-circle" clip-path="url(#clip0_0_185)">
<g id="Vector">
</g>
<path id="Vector_2" d="M3.5 23.3333L5.01667 18.7833C3.70585 16.8447 3.23166 14.5488 3.68225 12.3227C4.13285 10.0966 5.47757 8.09162 7.4664 6.68065C9.45522 5.26969 11.9528 4.54871 14.4948 4.65178C17.0367 4.75485 19.4501 5.67494 21.2862 7.24099C23.1222 8.80703 24.256 10.9125 24.4767 13.1658C24.6975 15.4192 23.9901 17.6671 22.4862 19.4916C20.9823 21.3162 18.7841 22.5932 16.3004 23.0852C13.8168 23.5773 11.2166 23.2509 8.98333 22.1667L3.5 23.3333" stroke="#004004" stroke-width="2" stroke-linecap="round" stroke-linejoin="round"/>
<path id="Vector_3" d="M14 14V14.0117" stroke="#004004" stroke-width="2" stroke-linecap="round" stroke-linejoin="round"/>
<path id="Vector_4" d="M9.33333 14V14.0117" stroke="#004004" stroke-width="2" stroke-linecap="round" stroke-linejoin="round"/>
<path id="Vector_5" d="M18.6667 14V14.0117" stroke="#004004" stroke-width="2" stroke-linecap="round" stroke-linejoin="round"/>
</g>
<defs>
<clipPath id="clip0_0_185">
<rect width="28" height="28" fill="white"/>
</clipPath>
</defs>
</svg>
