<svg preserveAspectRatio="none" overflow="visible" style="display: block;" width="77.1404" height="80.0811" viewBox="0 0 77.1404 80.0811" fill="none" xmlns="http://www.w3.org/2000/svg">
<g id="Group">
<path id="Vector" fill-rule="evenodd" clip-rule="evenodd" d="M67.0915 61.181C66.691 61.0552 66.277 60.9769 65.8582 60.9476C66.1465 59.8604 66.2033 58.7248 66.0249 57.6143C65.8701 56.6523 65.5064 55.7359 64.9593 54.9296C64.4122 54.1233 63.695 53.4468 62.8582 52.9476C61.9499 52.4025 60.9343 52.0607 59.8813 51.9456C58.8282 51.8305 57.7628 51.9449 56.7582 52.281C54.3568 52.9903 52.0998 54.1188 50.0915 55.6143C48.6915 56.6143 47.5249 57.681 46.5582 58.3143C44.4582 59.7476 40.6582 61.981 38.9582 62.981C38.7345 63.1311 38.5228 63.2982 38.3249 63.481C37.0353 63.3957 35.7601 63.1608 34.5249 62.781C32.6549 62.4444 30.8806 61.7051 29.3249 60.6143C29.3249 60.6143 29.3249 60.3476 29.3249 60.1476C29.539 59.7538 29.7961 59.3848 30.0915 59.0476C33.6249 54.981 37.1582 53.0476 38.3582 50.581C38.8236 49.6013 39.0254 48.5172 38.9435 47.4357C38.8617 46.3542 38.4991 45.3127 37.8915 44.4143C37.2965 43.4573 36.4186 42.709 35.3794 42.273C34.3403 41.8371 33.1913 41.735 32.0915 41.981C28.2047 42.7171 24.4799 44.1393 21.0915 46.181C17.8122 48.2032 14.3256 49.8683 10.6915 51.1476H9.95819H9.75819C8.62082 51.229 7.48003 51.0465 6.42485 50.6143C4.82305 50.117 3.27173 49.4697 1.79152 48.681C1.6602 48.6 1.51421 48.5456 1.36189 48.5211C1.20958 48.4965 1.05392 48.5022 0.903795 48.5378C0.753673 48.5734 0.612033 48.6382 0.486961 48.7285C0.361889 48.8189 0.255834 48.933 0.174852 49.0643C0.0938704 49.1956 0.0395474 49.3416 0.0149846 49.4939C-0.00957813 49.6462 -0.00389952 49.8019 0.0316963 49.952C0.0672921 50.1021 0.132108 50.2438 0.222443 50.3688C0.312778 50.4939 0.426864 50.6 0.558186 50.681C2.21399 51.7526 3.966 52.6676 5.79152 53.4143C7.07681 53.914 8.44592 54.1629 9.82485 54.1476H10.2582C11.1685 54.022 12.0625 53.7985 12.9249 53.481C16.2963 52.2333 19.5623 50.7173 22.6915 48.9476C25.365 47.4656 28.2233 46.3447 31.1915 45.6143C32.9582 45.2476 34.5249 45.0143 35.2582 46.2476C35.603 46.7244 35.8155 47.2839 35.874 47.8694C35.9326 48.4548 35.8351 49.0454 35.5915 49.581C34.4249 51.8476 30.9915 53.481 27.6249 57.181C25.1249 59.9476 25.4249 61.981 26.6915 63.481C28.6278 65.09 30.9092 66.2307 33.3582 66.8143C34.906 67.3073 36.5054 67.6204 38.1248 67.7476C40.4219 67.9135 42.7278 67.9135 45.0249 67.7476C47.2567 67.6542 49.482 67.4428 51.6915 67.1143C55.6249 66.5143 58.8249 65.7143 61.1249 65.4476C62.4914 65.1297 63.8886 64.9621 65.2915 64.9476C65.7191 65.0085 66.1198 65.192 66.4452 65.476C66.7706 65.76 67.0067 66.1322 67.1249 66.5476C67.5249 67.4143 67.1249 68.1476 66.3249 68.8476C64.6455 70.3614 62.7601 71.6295 60.7249 72.6143C55.4836 75.2714 49.7008 76.6857 43.8248 76.7476C34.7345 76.9896 25.6641 75.7743 16.9582 73.1476C16.7722 73.1011 16.5775 73.1011 16.3915 73.1476L1.32485 75.7476C1.18883 75.769 1.05845 75.8173 0.941359 75.8897C0.82427 75.9621 0.722837 76.0572 0.643018 76.1694C0.5632 76.2816 0.506606 76.4086 0.47656 76.543C0.446515 76.6773 0.443624 76.8164 0.468058 76.9519C0.492492 77.0874 0.543758 77.2166 0.618844 77.332C0.69393 77.4474 0.791322 77.5467 0.905299 77.6239C1.01928 77.7011 1.14754 77.7548 1.28255 77.7818C1.41757 77.8088 1.55661 77.8085 1.69152 77.781L16.4582 75.6143C25.3146 78.5678 34.5889 80.076 43.9249 80.081C50.3985 80.1003 56.7884 78.6169 62.5915 75.7476C65.474 74.3948 68.049 72.4663 70.1582 70.081C70.7228 69.3194 71.0783 68.4234 71.1894 67.4819C71.3005 66.5405 71.1633 65.5863 70.7915 64.7143C70.4713 63.8902 69.974 63.1466 69.3346 62.536C68.6952 61.9254 67.9295 61.4628 67.0915 61.181ZM60.7249 61.381C58.3915 61.6476 55.1582 62.4476 51.1582 63.0476C49.1052 63.3762 47.0352 63.5877 44.9582 63.681H43.4249C45.1915 62.9143 47.1249 62.081 48.4582 61.4143C49.7915 60.7476 50.5915 60.181 51.7915 59.3143C53.3338 58.3549 54.9372 57.4975 56.5915 56.7476C57.2557 56.2904 58.0176 55.9951 58.8164 55.8851C59.6151 55.7751 60.4285 55.8536 61.1915 56.1143C61.6863 56.3419 62.1285 56.6698 62.49 57.0772C62.8515 57.4845 63.1244 57.9626 63.2915 58.481C63.5089 59.3566 63.5089 60.272 63.2915 61.1476L60.7249 61.381Z" fill="white" fill-opacity="0.7"/>
<path id="Vector_2" fill-rule="evenodd" clip-rule="evenodd" d="M70.3915 6.18094C67.2399 3.66563 63.5871 1.85286 59.6779 0.86406C55.7687 -0.124737 51.6934 -0.266724 47.7248 0.44761C44.1426 1.11308 40.8213 2.77726 38.1438 5.24834C35.4663 7.71942 33.5416 10.8968 32.5915 14.4143C30.5393 21.2162 31.2333 28.5513 34.5248 34.8476C36.2934 37.6163 38.6613 39.9524 41.4537 41.6832C44.2462 43.4141 47.3918 44.4955 50.6582 44.8476C57.0675 46.0316 63.6856 44.6553 69.0915 41.0143C69.2193 40.9274 69.3285 40.816 69.4128 40.6866C69.4972 40.5572 69.555 40.4123 69.5829 40.2603C69.6108 40.1084 69.6083 39.9524 69.5754 39.8014C69.5426 39.6505 69.4801 39.5075 69.3915 39.3809C69.2055 39.1353 68.9322 38.9706 68.6282 38.921C68.3241 38.8714 68.0126 38.9406 67.7582 39.1143C62.7947 42.2203 56.8172 43.2724 51.0915 42.0476C48.339 41.6945 45.6985 40.7375 43.359 39.245C41.0194 37.7526 39.0386 35.7615 37.5582 33.4143C34.8851 27.9164 34.4431 21.5974 36.3248 15.7809C37.0478 12.9104 38.5726 10.3048 40.721 8.26848C42.8695 6.23214 45.553 4.84912 48.4582 4.28094C51.9108 3.54768 55.48 3.55784 58.9284 4.31074C62.3768 5.06364 65.6254 6.54203 68.4582 8.64761C72.7915 12.3143 75.4915 18.4143 74.4915 27.9809C74.3384 29.4254 74.0139 30.8465 73.5248 32.2143C73.0473 33.5718 72.3735 34.8521 71.5248 36.0143C71.3639 36.2318 71.2946 36.5038 71.332 36.7718C71.3694 37.0398 71.5105 37.2825 71.7248 37.4476C71.8309 37.5317 71.9528 37.5933 72.0834 37.6289C72.2139 37.6644 72.3503 37.6731 72.4843 37.6544C72.6183 37.6357 72.7471 37.59 72.863 37.5201C72.9788 37.4502 73.0792 37.3575 73.1582 37.2476C74.1727 35.9636 74.9926 34.5372 75.5915 33.0143C76.1897 31.4913 76.6038 29.9022 76.8248 28.2809C78.1582 17.5143 75.1248 10.5143 70.3915 6.18094Z" fill="white" fill-opacity="0.7"/>
<path id="Vector_3" fill-rule="evenodd" clip-rule="evenodd" d="M55.7249 22.6143V20.9476C55.4249 18.0476 54.7582 14.2809 54.6582 13.3476C54.6582 13.0736 54.5493 12.8107 54.3555 12.6169C54.1618 12.4231 53.8989 12.3143 53.6249 12.3143C53.3508 12.3143 53.088 12.4231 52.8942 12.6169C52.7004 12.8107 52.5915 13.0736 52.5915 13.3476C52.5915 14.2476 52.0249 18.1143 51.8915 21.0809V24.4143C51.9053 24.8914 52.0921 25.3473 52.4171 25.6969C52.7422 26.0465 53.1833 26.2659 53.6582 26.3143C53.6582 26.3143 55.3249 26.3143 57.5915 26.3143C59.8582 26.3143 61.5249 26.3143 63.4915 26.1143C63.7986 26.1148 64.0941 25.9975 64.3173 25.7867C64.5406 25.5759 64.6745 25.2875 64.6915 24.9809C64.696 24.8277 64.6702 24.6751 64.6156 24.5319C64.561 24.3886 64.4788 24.2575 64.3735 24.1461C64.2683 24.0346 64.1421 23.945 64.0022 23.8824C63.8623 23.8197 63.7114 23.7853 63.5582 23.7809L55.7249 22.6143Z" fill="white" fill-opacity="0.7"/>
</g>
</svg>
